<?xml version="1.0" encoding="utf-8"?>
<!-- Svg Vector Icons : http://www.onlinewebfonts.com/icon -->
<!DOCTYPE svg PUBLIC "-//W3C//DTD SVG 1.1//EN" "http://www.w3.org/Graphics/SVG/1.1/DTD/svg11.dtd">
<svg version="1.1" xmlns="http://www.w3.org/2000/svg" xmlns:xlink="http://www.w3.org/1999/xlink" x="0px" y="0px" viewBox="0 0 1000 1000" enable-background="new 0 0 1000 1000" xml:space="preserve">
<metadata> Svg Vector Icons : http://www.onlinewebfonts.com/icon </metadata>
<g><g transform="translate(0.000000,512.000000) scale(0.100000,-0.100000)"><path d="M543.2,4757c-49.9-403.1-38.4-689.2,46.1-1105.7c115.2-572.1,430-1232.4,821.6-1722c55.7-69.1,752.5-783.2,1549.2-1587.6C4117.6-827.4,4422.9-1124.9,4480.5-1142.2c38.4-13.4,117.1-49.9,174.7-80.6l103.7-57.6l606.6,606.6L5972-67.2L4862.5,1040.5L3754.8,2150.1l-155.5,55.7c-216.9,76.8-564.4,257.2-819.7,426.2c-735.2,489.5-1391.8,1178.7-2008,2105.9c-101.7,155.5-188.1,282.2-192,282.2C577.7,5020,560.5,4901,543.2,4757z M3424.6,981c74.9-40.3,1130.7-1107.6,1146.1-1159.5c32.6-111.3-48-215-167-215c-67.2,0-88.3,13.5-193.9,120.9C3265.3,679.6,3178.9,771.7,3178.9,833.2c0,44.2,17.3,80.6,55.7,119C3297.9,1013.6,3347.8,1021.3,3424.6,981z"/><path d="M6651.6,11.5c-38.4-7.7-107.5-36.5-153.6-63.3c-126.7-74.9-1710.4-1674-1764.2-1781.5c-51.8-101.7-59.5-282.2-15.4-383.9c74.9-174.7,247.6-287.9,437.7-287.9c144,0,238,48,397.4,197.7l132.5,126.7l144-144l142-142.1l598.9,598.9l600.9,600.9l-142.1,144l-144,144l126.7,134.4c147.8,157.4,195.8,251.5,197.7,383.9c0,142.1-28.8,224.6-115.2,322.5C6985.6-15.3,6812.9,44.2,6651.6,11.5z"/><path d="M6811-2107.8l-599-598.9l92.1-92.1l90.2-90.2l600.9,600.9l598.9,598.9l-92.1,92.1l-90.2,90.2L6811-2107.8z"/><path d="M7233.3-2530.1c-318.7-318.7-579.8-589.3-579.8-598.9c0-11.5,38.4-59.5,86.4-105.6l86.4-86.4l598.9,600.9l600.8,598.9l-86.4,86.4c-46.1,48-94.1,86.4-105.6,86.4C7824.5-1948.5,7553.9-2209.5,7233.3-2530.1z"/><path d="M7661.4-2965.9L7066.3-3561l151.7-151.7l149.7-151.7l-32.6-99.8c-46.1-136.3-32.6-360.9,26.9-476.1c63.3-124.8,167-226.5,286-286c92.1-44.2,134.4-53.8,263-53.8c268.8,0,297.5,19.2,925.3,650.8c443.4,441.5,551,562.5,589.3,646.9c161.3,353.2-9.6,750.6-370.5,854.3c-124.8,36.5-328.3,28.8-416.6-17.3L8579-2676l-151.7,153.6c-82.6,82.6-155.5,151.7-161.3,151.7C8260.3-2370.8,7987.7-2637.6,7661.4-2965.9z M8995.6-2962.1c136.3-67.2,199.7-270.7,122.9-387.8c-51.8-78.7-1011.7-1036.6-1067.4-1067.3c-28.8-15.4-86.4-26.9-130.5-26.9c-188.1,0-312.9,153.6-278.3,341.7c11.5,61.4,90.2,149.7,533.7,597c287.9,287.9,549,535.6,579.8,550.9C8834.3-2919.8,8916.9-2921.7,8995.6-2962.1z"/></g></g>
</svg>