0
SECTION
2
HEADER
9
$INSUNITS
70
4
9
$ACADVER
1
AC1014
9
$HANDSEED
5
FFFF
0
ENDSEC
0
SECTION
2
TABLES
0
TABLE
2
VPORT
5
8
100
AcDbSymbolTable
0
ENDTAB
0
TABLE
2
LTYPE
5
5
100
AcDbSymbolTable
0
LTYPE
5
14
100
AcDbSymbolTableRecord
100
AcDbLinetypeTableRecord
2
BYBLOCK
70
0
0
LTYPE
5
15
100
AcDbSymbolTableRecord
100
AcDbLinetypeTableRecord
2
BYLAYER
70
0
0
ENDTAB
0
TABLE
2
LAYER
5
2
100
AcDbSymbolTable
70
2
0
LAYER
5
50
100
AcDbSymbolTableRecord
100
AcDbLayerTableRecord
2
0
70
0
6
CONTINUOUS
0
ENDTAB
0
TABLE
2
STYLE
5
3
100
AcDbSymbolTable
70
1
0
STYLE
5
11
100
AcDbSymbolTableRecord
100
AcDbTextStyleTableRecord
2
STANDARD
70
0
0
ENDTAB
0
TABLE
2
VIEW
5
6
100
AcDbSymbolTable
70
0
0
ENDTAB
0
TABLE
2
UCS
5
7
100
AcDbSymbolTable
70
0
0
ENDTAB
0
TABLE
2
APPID
5
9
100
AcDbSymbolTable
70
2
0
APPID
5
12
100
AcDbSymbolTableRecord
100
AcDbRegAppTableRecord
2
ACAD
70
0
0
ENDTAB
0
TABLE
2
DIMSTYLE
5
A
100
AcDbSymbolTable
70
1
0
ENDTAB
0
TABLE
2
BLOCK_RECORD
5
1
100
AcDbSymbolTable
70
1
0
BLOCK_RECORD
5
1F
100
AcDbSymbolTableRecord
100
AcDbBlockTableRecord
2
*MODEL_SPACE
0
BLOCK_RECORD
5
1B
100
AcDbSymbolTableRecord
100
AcDbBlockTableRecord
2
*PAPER_SPACE
0
ENDTAB
0
ENDSEC
0
SECTION
2
BLOCKS
0
BLOCK
5
20
100
AcDbEntity
100
AcDbBlockBegin
2
*MODEL_SPACE
0
ENDBLK
5
21
100
AcDbEntity
100
AcDbBlockEnd
0
BLOCK
5
1C
100
AcDbEntity
100
AcDbBlockBegin
2
*PAPER_SPACE
0
ENDBLK
5
1D
100
AcDbEntity
100
AcDbBlockEnd
0
ENDSEC
0
SECTION
2
ENTITIES
0
CIRCLE
5
100
100
AcDbEntity
8
0
100
AcDbCircle
10
75.345310524888248
20
6.8375507790080992
30
0
40
1.6249999999999964
0
CIRCLE
5
101
100
AcDbEntity
8
0
100
AcDbCircle
10
75.345309884138345
20
-51.16244922099191
30
0
40
1.6249999999999964
0
CIRCLE
5
102
100
AcDbEntity
8
0
100
AcDbCircle
10
75.345310524888248
20
6.8375507790080992
30
0
40
3.0000000000000009
0
CIRCLE
5
103
100
AcDbEntity
8
0
100
AcDbCircle
10
75.345309884138345
20
-51.16244922099191
30
0
40
2.9999999999999978
0
CIRCLE
5
104
100
AcDbEntity
8
0
100
AcDbCircle
10
75.345310524888276
20
13.83755077900808
30
0
40
1.1249999999999982
0
CIRCLE
5
105
100
AcDbEntity
8
0
100
AcDbCircle
10
17.345310524888266
20
13.83755077900808
30
0
40
1.3750000000000009
0
CIRCLE
5
106
100
AcDbEntity
8
0
100
AcDbCircle
10
75.345310524888276
20
62.837550779008083
30
0
40
1.1249999999999982
0
CIRCLE
5
107
100
AcDbEntity
8
0
100
AcDbCircle
10
17.345310524888266
20
62.837550779008083
30
0
40
1.1249999999999982
0
CIRCLE
5
108
100
AcDbEntity
8
0
100
AcDbCircle
10
75.345310524888276
20
13.83755077900808
30
0
40
2.4999999999999969
0
CIRCLE
5
109
100
AcDbEntity
8
0
100
AcDbCircle
10
75.345310524888276
20
62.837550779008083
30
0
40
2.4999999999999991
0
CIRCLE
5
110
100
AcDbEntity
8
0
100
AcDbCircle
10
17.345310524888266
20
62.837550779008083
30
0
40
2.5000000000000027
0
CIRCLE
5
111
100
AcDbEntity
8
0
100
AcDbCircle
10
17.345310524888266
20
13.83755077900808
30
0
40
2.5000000000000004
0
CIRCLE
5
112
100
AcDbEntity
8
0
100
AcDbCircle
10
34.685853572788972
20
72.924845156765514
30
0
40
1.6249999999999978
0
CIRCLE
5
113
100
AcDbEntity
8
0
100
AcDbCircle
10
131.20585357278898
20
72.924845156765514
30
0
40
1.6249999999999964
0
CIRCLE
5
114
100
AcDbEntity
8
0
100
AcDbCircle
10
34.685853572788972
20
-22.325154843234493
30
0
40
1.6249999999999987
0
CIRCLE
5
115
100
AcDbEntity
8
0
100
AcDbCircle
10
131.20585357278898
20
-22.325154843234493
30
0
40
1.6250000000000033
0
CIRCLE
5
116
100
AcDbEntity
8
0
100
AcDbCircle
10
34.685853572788972
20
72.924845156765514
30
0
40
4.9999999999999991
0
CIRCLE
5
117
100
AcDbEntity
8
0
100
AcDbCircle
10
131.20585357278898
20
72.924845156765514
30
0
40
5
0
CIRCLE
5
118
100
AcDbEntity
8
0
100
AcDbCircle
10
131.20585357278898
20
-22.325154843234493
30
0
40
5.0000000000000009
0
CIRCLE
5
119
100
AcDbEntity
8
0
100
AcDbCircle
10
34.685853572788972
20
-22.325154843234493
30
0
40
5
0
LINE
5
120
100
AcDbEntity
8
0
100
AcDbLine
10
17.345310524888266
20
13.83755077900808
30
0
11
17.345310524888266
21
62.837550779008083
31
0
0
LINE
5
121
100
AcDbEntity
8
0
100
AcDbLine
10
17.345310524888266
20
62.837550779008083
30
0
11
34.685853572788972
21
72.924845156765514
31
0
0
LINE
5
122
100
AcDbEntity
8
0
100
AcDbLine
10
34.685853572788972
20
72.924845156765514
30
0
11
75.345310524888276
21
62.837550779008083
31
0
0
LINE
5
123
100
AcDbEntity
8
0
100
AcDbLine
10
75.345310524888276
20
62.837550779008083
30
0
11
131.20585357278898
21
72.924845156765514
31
0
0
LINE
5
124
100
AcDbEntity
8
0
100
AcDbLine
10
131.20585357278898
20
72.924845156765514
30
0
11
131.20585357278898
21
-22.325154843234493
31
0
0
LINE
5
125
100
AcDbEntity
8
0
100
AcDbLine
10
131.20585357278898
20
-22.325154843234493
30
0
11
75.345309884138345
21
-51.16244922099191
31
0
0
LINE
5
126
100
AcDbEntity
8
0
100
AcDbLine
10
75.345309884138345
20
-51.16244922099191
30
0
11
34.685853572788972
21
-22.325154843234493
31
0
0
LINE
5
127
100
AcDbEntity
8
0
100
AcDbLine
10
34.685853572788972
20
-22.325154843234493
30
0
11
17.345310524888266
21
13.83755077900808
31
0
0
LINE
5
128
100
AcDbEntity
8
0
100
AcDbLine
10
75.345310524888276
20
62.837550779008083
30
0
11
75.345310524888276
21
13.83755077900808
31
0
0
LINE
5
129
100
AcDbEntity
8
0
100
AcDbLine
10
75.345310524888276
20
13.83755077900808
30
0
11
75.345310524888248
21
6.8375507790080992
31
0
0
LINE
5
130
100
AcDbEntity
8
0
100
AcDbLine
10
75.345310524888248
20
6.8375507790080992
30
0
11
75.345309884138345
21
-51.16244922099191
31
0
0
LINE
5
131
100
AcDbEntity
8
0
100
AcDbLine
10
27.345310524888266
20
16.111183233456916
30
0
11
27.345310524888266
21
57.085821565508027
31
0
0
LINE
5
132
100
AcDbEntity
8
0
100
AcDbLine
10
27.345310524888266
20
57.085821565508027
30
0
11
36.211202267662031
21
62.243264425494743
31
0
0
LWPOLYLINE
5
133
100
AcDbEntity
8
0
100
AcDbPolyline
90
4
70
1
43
0.0
10
121.20585357278898
20
-16.233635224445699
10
121.20585357278898
20
60.957307953475528
10
85.345310524888276
20
54.481612685704377
10
85.345310065495582
20
-34.746184179036383
0
LINE
5
134
100
AcDbEntity
8
0
100
AcDbLine
10
42.583150146479369
20
-15.666455277192458
30
0
11
27.345310524888266
21
16.111183233456916
31
0
0
LINE
5
135
100
AcDbEntity
8
0
100
AcDbLine
10
7.3453105248882666
20
11.563918324559236
30
0
11
7.3453105248882657
21
68.589279992508153
31
0
0
LINE
5
136
100
AcDbEntity
8
0
100
AcDbLine
10
7.3453105248882657
20
68.589279992508153
30
0
11
33.160504877915912
21
83.606425888036284
31
0
0
LINE
5
137
100
AcDbEntity
8
0
100
AcDbLine
10
33.160504877915912
20
83.606425888036284
30
0
11
75.675203558985601
21
73.058860496721763
31
0
0
LINE
5
138
100
AcDbEntity
8
0
100
AcDbLine
10
75.675203558985601
20
73.058860496721763
30
0
11
141.20585357278898
21
84.892382360055493
31
0
0
LINE
5
139
100
AcDbEntity
8
0
100
AcDbLine
10
141.20585357278898
20
84.892382360055493
30
0
11
141.20585357278898
21
-28.416674462023277
31
0
0
LINE
5
140
100
AcDbEntity
8
0
100
AcDbLine
10
141.20585357278898
20
-28.416674462023277
30
0
11
74.524500941646522
21
-62.840073669324383
31
0
0
LINE
5
141
100
AcDbEntity
8
0
100
AcDbLine
10
74.524500941646522
20
-62.840073669324383
30
0
11
26.788556999098585
21
-28.983854409276528
31
0
0
LINE
5
142
100
AcDbEntity
8
0
100
AcDbLine
10
26.788556999098585
20
-28.983854409276528
30
0
11
7.3453105248882666
21
11.563918324559236
31
0
0
LINE
5
143
100
AcDbEntity
8
0
100
AcDbLine
10
65.345310524888276
20
13.837550779008083
30
0
11
65.345310524888248
21
6.837550779008124
31
0
0
LINE
5
144
100
AcDbEntity
8
0
100
AcDbLine
10
65.345310524888248
20
6.837550779008124
30
0
11
65.34531009792974
21
-31.810279291148902
31
0
0
LINE
5
145
100
AcDbEntity
8
0
100
AcDbLine
10
65.34531009792974
20
-31.810279291148902
30
0
11
42.583150146479369
21
-15.666455277192458
31
0
0
LINE
5
146
100
AcDbEntity
8
0
100
AcDbLine
10
85.345310524888276
20
13.837550779008083
30
0
11
85.345310524888248
21
6.8375507790080743
31
0
0
LINE
5
147
100
AcDbEntity
8
0
100
AcDbLine
10
42.583150146479369
20
-15.666455277192458
30
0
11
65.34531009792974
21
-31.810279291148902
31
0
0
LINE
5
148
100
AcDbEntity
8
0
100
AcDbLine
10
42.583150146479369
20
-15.666455277192458
30
0
11
27.345310524888266
21
16.111183233456916
31
0
0
LINE
5
149
100
AcDbEntity
8
0
100
AcDbLine
10
65.34531009792974
20
-31.810279291148902
30
0
11
65.345310524888276
21
55.015319232564153
31
0
0
LINE
5
150
100
AcDbEntity
8
0
100
AcDbLine
10
36.211202267662031
20
62.243264425494743
30
0
11
65.345310524888276
21
55.015319232564153
31
0
0
LINE
5
151
100
AcDbEntity
8
0
100
AcDbLine
10
34.685853572788972
20
72.924845156765514
30
0
11
45.02961002067957
21
72.924845156765514
31
0
0
LINE
5
152
100
AcDbEntity
8
0
100
AcDbLine
10
34.685853572788972
20
-22.325154843234493
30
0
11
39.685853572788972
21
-22.325154843234493
31
0
0
LWPOLYLINE
5
153
100
AcDbEntity
8
0
100
AcDbPolyline
90
6
70
1
43
0.0
10
34.685853572788972
20
-19.034258308853623
10
37.535853572788973
20
-20.679706576044058
10
37.535853572788973
20
-23.970603110424928
10
34.685853572788972
20
-25.61605137761536
10
31.83585357278897
20
-23.970603110424928
10
31.83585357278897
20
-20.679706576044058
0
LINE
5
154
100
AcDbEntity
8
0
100
AcDbLine
10
31.83585357278897
20
-20.679706576044058
30
0
11
29.703027691720592
21
-21.911094172613488
31
0
0
LINE
5
155
100
AcDbEntity
8
0
100
AcDbLine
10
34.685853572788972
20
-25.61605137761536
30
0
11
32.553027691720594
21
-26.847438974184787
31
0
0
LWPOLYLINE
5
156
100
AcDbEntity
8
0
100
AcDbPolyline
90
6
70
1
43
0.0
10
131.20585357278898
20
-25.61605137761536
10
128.35585357278899
20
-23.970603110424928
10
128.35585357278899
20
-20.679706576044058
10
131.20585357278898
20
-19.034258308853623
10
134.05585357278898
20
-20.679706576044058
10
134.05585357278898
20
-23.970603110424928
0
LINE
5
157
100
AcDbEntity
8
0
100
AcDbLine
10
131.20585357278898
20
-25.61605137761536
30
0
11
133.33867945385737
21
-26.847438974184787
31
0
0
LINE
5
158
100
AcDbEntity
8
0
100
AcDbLine
10
134.05585357278898
20
-20.679706576044058
30
0
11
136.18867945385736
21
-21.911094172613495
31
0
0
LWPOLYLINE
5
159
100
AcDbEntity
8
0
100
AcDbPolyline
90
6
70
1
43
0.0
10
131.20585357278898
20
76.215741691146391
10
134.05585357278898
20
74.570293423955945
10
134.05585357278898
20
71.279396889575082
10
131.20585357278898
20
69.633948622384636
10
128.35585357278899
20
71.279396889575082
10
128.35585357278899
20
74.570293423955945
0
LINE
5
160
100
AcDbEntity
8
0
100
AcDbLine
10
131.20585357278898
20
76.215741691146391
30
0
11
133.33867945385737
21
77.447129287715811
31
0
0
LINE
5
161
100
AcDbEntity
8
0
100
AcDbLine
10
134.05585357278898
20
71.279396889575082
30
0
11
136.18867945385736
21
72.510784486144502
31
0
0
LWPOLYLINE
5
162
100
AcDbEntity
8
0
100
AcDbPolyline
90
6
70
1
43
0.0
10
34.685853572788972
20
69.633948622384636
10
31.83585357278897
20
71.279396889575082
10
31.835853572788967
20
74.570293423955945
10
34.685853572788972
20
76.215741691146391
10
37.53585357278898
20
74.570293423955945
10
37.53585357278898
20
71.279396889575082
0
LINE
5
163
100
AcDbEntity
8
0
100
AcDbLine
10
34.685853572788972
20
76.215741691146391
30
0
11
32.553027691720601
21
77.447129287715811
31
0
0
LINE
5
164
100
AcDbEntity
8
0
100
AcDbLine
10
31.83585357278897
20
71.279396889575082
30
0
11
29.703027691720592
21
72.510784486144516
31
0
0
LINE
5
165
100
AcDbEntity
8
0
100
AcDbLine
10
17.345310524888266
20
13.83755077900808
30
0
11
0.34531052488826486
21
13.83755077900808
31
0
0
LINE
5
166
100
AcDbEntity
8
0
100
AcDbLine
10
34.685853572788972
20
72.924845156765514
30
0
11
-0.31414642721102837
21
72.924845156765514
31
0
0
LINE
5
167
100
AcDbEntity
8
0
100
AcDbLine
10
131.20585357278898
20
72.924845156765514
30
0
11
166.20585357278898
21
72.924845156765514
31
0
0
LINE
5
168
100
AcDbEntity
8
0
100
AcDbLine
10
166.20585357278898
20
72.924845156765514
30
0
11
166.20585357278898
21
84.892382360055493
31
0
0
LINE
5
169
100
AcDbEntity
8
0
100
AcDbLine
10
141.20585357278898
20
84.892382360055493
30
0
11
166.20585357278898
21
84.892382360055493
31
0
0
LINE
5
170
100
AcDbEntity
8
0
100
AcDbLine
10
-0.31414642721102837
20
72.924845156765514
30
0
11
-0.31414642721102837
21
84.892382360055493
31
0
0
LINE
5
171
100
AcDbEntity
8
0
100
AcDbLine
10
-0.31414642721102837
20
84.892382360055493
30
0
11
166.20585357278898
21
84.892382360055493
31
0
0
LINE
5
172
100
AcDbEntity
8
0
100
AcDbLine
10
-0.31414642721102837
20
84.892382360055493
30
0
11
166.20585357278898
21
84.892382360055493
31
0
0
LINE
5
173
100
AcDbEntity
8
0
100
AcDbLine
10
166.20585357278898
20
84.892382360055493
30
0
11
166.20585357278898
21
-62.84007366932439
31
0
0
LINE
5
174
100
AcDbEntity
8
0
100
AcDbLine
10
166.20585357278898
20
-62.84007366932439
30
0
11
-0.31414642721102837
21
-62.84007366932439
31
0
0
LINE
5
175
100
AcDbEntity
8
0
100
AcDbLine
10
-0.31414642721102837
20
-62.84007366932439
30
0
11
-0.31414642721102837
21
84.892382360055493
31
0
0
LWPOLYLINE
5
176
100
AcDbEntity
8
0
100
AcDbPolyline
90
4
70
1
43
0.0
10
7.6858535727889716
20
76.892382360055493
10
7.6858535727889787
20
-54.84007366932439
10
158.20585357278898
20
-54.84007366932439
10
158.20585357278898
20
76.892382360055493
0
LWPOLYLINE
5
177
100
AcDbEntity
8
0
100
AcDbPolyline
90
4
70
1
43
0.0
10
170.70585357278898
20
-67.340073669324397
10
170.70585357278898
20
89.392382360055493
10
-4.8141464272110284
20
89.392382360055507
10
-4.8141464272110213
20
-67.340073669324397
0
LINE
5
178
100
AcDbEntity
8
0
100
AcDbLine
10
-0.31414642721102837
20
84.892382360055493
30
0
11
-0.31414642721102837
21
30.442382360055493
31
0
0
LINE
5
179
100
AcDbEntity
8
0
100
AcDbLine
10
-0.31414642721102837
20
30.442382360055493
30
0
11
-4.8141464272110257
21
30.442382360055493
31
0
0
LINE
5
180
100
AcDbEntity
8
0
100
AcDbLine
10
-0.31414642721102837
20
84.892382360055493
30
0
11
-4.8141464272110284
21
84.892382360055493
31
0
0
LINE
5
181
100
AcDbEntity
8
0
100
AcDbLine
10
-0.31414642721102837
20
30.442382360055493
30
0
11
-0.31414642721102837
21
32.442382360055497
31
0
0
LINE
5
182
100
AcDbEntity
8
0
100
AcDbLine
10
-0.31414642721102837
20
32.442382360055497
30
0
11
-4.8141464272110257
21
32.442382360055497
31
0
0
LINE
5
183
100
AcDbEntity
8
0
100
AcDbLine
10
-0.31414642721102837
20
84.892382360055493
30
0
11
-0.31414642721102837
21
82.892382360055507
31
0
0
LINE
5
184
100
AcDbEntity
8
0
100
AcDbLine
10
-0.31414642721102837
20
82.892382360055507
30
0
11
-4.8141464272110284
21
82.892382360055507
31
0
0
ENDSEC
0
SECTION
2
OBJECTS
0
DICTIONARY
5
C
100
AcDbDictionary
3
ACAD_GROUP
350
D
3
ACAD_MLINESTYLE
350
17
0
DICTIONARY
5
D
100
AcDbDictionary
0
DICTIONARY
5
1A
330
C
100
AcDbDictionary
0
DICTIONARY
5
17
100
AcDbDictionary
0
ENDSEC
0
EOF
