0
SECTION
2
HEADER
9
$INSUNITS
70
4
9
$ACADVER
1
AC1014
9
$HANDSEED
5
FFFF
0
ENDSEC
0
SECTION
2
TABLES
0
TABLE
2
VPORT
5
8
100
AcDbSymbolTable
0
ENDTAB
0
TABLE
2
LTYPE
5
5
100
AcDbSymbolTable
0
LTYPE
5
14
100
AcDbSymbolTableRecord
100
AcDbLinetypeTableRecord
2
BYBLOCK
70
0
0
LTYPE
5
15
100
AcDbSymbolTableRecord
100
AcDbLinetypeTableRecord
2
BYLAYER
70
0
0
ENDTAB
0
TABLE
2
LAYER
5
2
100
AcDbSymbolTable
70
2
0
LAYER
5
50
100
AcDbSymbolTableRecord
100
AcDbLayerTableRecord
2
0
70
0
6
CONTINUOUS
0
ENDTAB
0
TABLE
2
STYLE
5
3
100
AcDbSymbolTable
70
1
0
STYLE
5
11
100
AcDbSymbolTableRecord
100
AcDbTextStyleTableRecord
2
STANDARD
70
0
0
ENDTAB
0
TABLE
2
VIEW
5
6
100
AcDbSymbolTable
70
0
0
ENDTAB
0
TABLE
2
UCS
5
7
100
AcDbSymbolTable
70
0
0
ENDTAB
0
TABLE
2
APPID
5
9
100
AcDbSymbolTable
70
2
0
APPID
5
12
100
AcDbSymbolTableRecord
100
AcDbRegAppTableRecord
2
ACAD
70
0
0
ENDTAB
0
TABLE
2
DIMSTYLE
5
A
100
AcDbSymbolTable
70
1
0
ENDTAB
0
TABLE
2
BLOCK_RECORD
5
1
100
AcDbSymbolTable
70
1
0
BLOCK_RECORD
5
1F
100
AcDbSymbolTableRecord
100
AcDbBlockTableRecord
2
*MODEL_SPACE
0
BLOCK_RECORD
5
1B
100
AcDbSymbolTableRecord
100
AcDbBlockTableRecord
2
*PAPER_SPACE
0
ENDTAB
0
ENDSEC
0
SECTION
2
BLOCKS
0
BLOCK
5
20
100
AcDbEntity
100
AcDbBlockBegin
2
*MODEL_SPACE
0
ENDBLK
5
21
100
AcDbEntity
100
AcDbBlockEnd
0
BLOCK
5
1C
100
AcDbEntity
100
AcDbBlockBegin
2
*PAPER_SPACE
0
ENDBLK
5
1D
100
AcDbEntity
100
AcDbBlockEnd
0
ENDSEC
0
SECTION
2
ENTITIES
0
LINE
5
100
100
AcDbEntity
8
0
100
AcDbLine
10
7.3453105248882666
20
11.563918324559236
30
0
11
7.3453105248882657
21
68.589279992508153
31
0
0
LINE
5
101
100
AcDbEntity
8
0
100
AcDbLine
10
7.3453105248882657
20
68.589279992508153
30
0
11
7.3453105248882666
21
11.563918324559239
31
0
0
LINE
5
102
100
AcDbEntity
8
0
100
AcDbLine
10
7.3453105248882666
20
11.563918324559239
30
0
11
26.788556999098585
21
-28.983854409276528
31
0
0
LINE
5
103
100
AcDbEntity
8
0
100
AcDbLine
10
74.524500941646494
20
-62.84007366932439
30
0
11
26.788556999098585
21
-28.983854409276528
31
0
0
LINE
5
104
100
AcDbEntity
8
0
100
AcDbLine
10
26.788556999098585
20
-28.983854409276528
30
0
11
74.524500941646522
21
-62.840073669324383
31
0
0
LINE
5
105
100
AcDbEntity
8
0
100
AcDbLine
10
141.20585357278898
20
84.892382360055493
30
0
11
33.476039208746826
21
84.892382360055493
31
0
0
LINE
5
106
100
AcDbEntity
8
0
100
AcDbLine
10
74.524500941646522
20
-62.840073669324383
30
0
11
141.20585357278898
21
-62.840073669324383
31
0
0
LINE
5
107
100
AcDbEntity
8
0
100
AcDbLine
10
141.20585357278898
20
-62.840073669324383
30
0
11
141.20585357278898
21
84.892382360055493
31
0
0
LINE
5
108
100
AcDbEntity
8
0
100
AcDbLine
10
27.19585357278897
20
38.253845156765507
30
0
11
30.875853572788969
21
38.253845156765507
31
0
0
LINE
5
109
100
AcDbEntity
8
0
100
AcDbLine
10
30.875853572788969
20
26.252345156765511
30
0
11
27.19585357278897
21
26.252345156765511
31
0
0
LINE
5
110
100
AcDbEntity
8
0
100
AcDbLine
10
27.19585357278897
20
38.253845156765507
30
0
11
27.19585357278897
21
26.252345156765511
31
0
0
LINE
5
111
100
AcDbEntity
8
0
100
AcDbLine
10
30.875853572788969
20
38.253845156765507
30
0
11
30.875853572788969
21
26.252345156765511
31
0
0
LINE
5
112
100
AcDbEntity
8
0
100
AcDbLine
10
27.19585357278897
20
38.253845156765507
30
0
11
-0.31414642721102837
21
38.253845156765507
31
0
0
LINE
5
113
100
AcDbEntity
8
0
100
AcDbLine
10
27.19585357278897
20
26.252345156765511
30
0
11
-0.31414642721102837
21
26.252345156765511
31
0
0
LINE
5
114
100
AcDbEntity
8
0
100
AcDbLine
10
-0.31414642721102837
20
26.252345156765511
30
0
11
-0.31414642721102837
21
38.253845156765507
31
0
0
LINE
5
115
100
AcDbEntity
8
0
100
AcDbLine
10
-0.31414642721102837
20
26.252345156765511
30
0
11
-0.31414642721102837
21
6.2523451567655108
31
0
0
LINE
5
116
100
AcDbEntity
8
0
100
AcDbLine
10
27.19585357278897
20
26.252345156765511
30
0
11
27.19585357278897
21
6.2523451567655108
31
0
0
LINE
5
117
100
AcDbEntity
8
0
100
AcDbLine
10
27.19585357278897
20
6.2523451567655108
30
0
11
-0.31414642721102837
21
6.2523451567655108
31
0
0
LINE
5
118
100
AcDbEntity
8
0
100
AcDbLine
10
-127.92123529573438
20
68.474958433608194
30
0
11
-88.921235295734377
21
68.474958433608194
31
0
0
LINE
5
119
100
AcDbEntity
8
0
100
AcDbLine
10
-88.921235295734377
20
68.474958433608194
30
0
11
-88.921235295734377
21
15.47495843360819
31
0
0
LINE
5
120
100
AcDbEntity
8
0
100
AcDbLine
10
-88.921235295734377
20
15.47495843360819
30
0
11
-127.92123529573438
21
15.47495843360819
31
0
0
LINE
5
121
100
AcDbEntity
8
0
100
AcDbLine
10
-127.92123529573438
20
15.47495843360819
30
0
11
-127.92123529573438
21
68.474958433608194
31
0
0
LINE
5
122
100
AcDbEntity
8
0
100
AcDbLine
10
-88.921235295734377
20
68.474958433608194
30
0
11
-111.17123529573436
21
68.474958433608194
31
0
0
LINE
5
123
100
AcDbEntity
8
0
100
AcDbLine
10
-111.17123529573436
20
68.474958433608194
30
0
11
-88.921235295734377
21
68.474958433608194
31
0
0
LINE
5
124
100
AcDbEntity
8
0
100
AcDbLine
10
-88.921235295734377
20
68.474958433608194
30
0
11
-88.921235295734377
21
15.47495843360819
31
0
0
LINE
5
125
100
AcDbEntity
8
0
100
AcDbLine
10
-88.921235295734377
20
15.47495843360819
30
0
11
-111.17123529573436
21
15.47495843360819
31
0
0
LINE
5
126
100
AcDbEntity
8
0
100
AcDbLine
10
-111.17123529573436
20
15.47495843360819
30
0
11
-111.17123529573436
21
68.474958433608194
31
0
0
ARC
5
127
100
AcDbEntity
8
0
100
AcDbCircle
10
-98.583548728570207
20
41.974958433608194
30
0
40
29.337686567164173
100
AcDbArc
50
115.40804722811363
51
244.59195277188635
0
LINE
5
128
100
AcDbEntity
8
0
100
AcDbLine
10
-88.921235295734377
20
68.474958433608194
30
0
11
-93.421235295734363
21
68.474958433608194
31
0
0
LINE
5
129
100
AcDbEntity
8
0
100
AcDbLine
10
-93.421235295734363
20
68.474958433608194
30
0
11
-93.421235295734363
21
15.47495843360819
31
0
0
LINE
5
130
100
AcDbEntity
8
0
100
AcDbLine
10
-93.421235295734363
20
15.47495843360819
30
0
11
-88.921235295734377
21
15.47495843360819
31
0
0
LINE
5
131
100
AcDbEntity
8
0
100
AcDbLine
10
-88.921235295734377
20
15.47495843360819
30
0
11
-88.921235295734377
21
68.474958433608194
31
0
0
LINE
5
132
100
AcDbEntity
8
0
100
AcDbLine
10
74.524500941646522
20
-62.840073669324383
30
0
11
50.656528970372548
21
-62.840073669324383
31
0
0
LINE
5
133
100
AcDbEntity
8
0
100
AcDbLine
10
50.656528970372548
20
-62.840073669324383
30
0
11
50.656528970372548
21
84.892382360055493
31
0
0
ARC
5
134
100
AcDbEntity
8
0
100
AcDbCircle
10
50.656528970372548
20
11.026154345365553
30
0
40
73.866228014689938
100
AcDbArc
50
90
51
270
0
ENDSEC
0
SECTION
2
OBJECTS
0
DICTIONARY
5
C
100
AcDbDictionary
3
ACAD_GROUP
350
D
3
ACAD_MLINESTYLE
350
17
0
DICTIONARY
5
D
100
AcDbDictionary
0
DICTIONARY
5
1A
330
C
100
AcDbDictionary
0
DICTIONARY
5
17
100
AcDbDictionary
0
ENDSEC
0
EOF
