0
SECTION
2
HEADER
9
$INSUNITS
70
4
9
$ACADVER
1
AC1014
9
$HANDSEED
5
FFFF
0
ENDSEC
0
SECTION
2
TABLES
0
TABLE
2
VPORT
5
8
100
AcDbSymbolTable
0
ENDTAB
0
TABLE
2
LTYPE
5
5
100
AcDbSymbolTable
0
LTYPE
5
14
100
AcDbSymbolTableRecord
100
AcDbLinetypeTableRecord
2
BYBLOCK
70
0
0
LTYPE
5
15
100
AcDbSymbolTableRecord
100
AcDbLinetypeTableRecord
2
BYLAYER
70
0
0
ENDTAB
0
TABLE
2
LAYER
5
2
100
AcDbSymbolTable
70
2
0
LAYER
5
50
100
AcDbSymbolTableRecord
100
AcDbLayerTableRecord
2
0
70
0
6
CONTINUOUS
0
ENDTAB
0
TABLE
2
STYLE
5
3
100
AcDbSymbolTable
70
1
0
STYLE
5
11
100
AcDbSymbolTableRecord
100
AcDbTextStyleTableRecord
2
STANDARD
70
0
0
ENDTAB
0
TABLE
2
VIEW
5
6
100
AcDbSymbolTable
70
0
0
ENDTAB
0
TABLE
2
UCS
5
7
100
AcDbSymbolTable
70
0
0
ENDTAB
0
TABLE
2
APPID
5
9
100
AcDbSymbolTable
70
2
0
APPID
5
12
100
AcDbSymbolTableRecord
100
AcDbRegAppTableRecord
2
ACAD
70
0
0
ENDTAB
0
TABLE
2
DIMSTYLE
5
A
100
AcDbSymbolTable
70
1
0
ENDTAB
0
TABLE
2
BLOCK_RECORD
5
1
100
AcDbSymbolTable
70
1
0
BLOCK_RECORD
5
1F
100
AcDbSymbolTableRecord
100
AcDbBlockTableRecord
2
*MODEL_SPACE
0
BLOCK_RECORD
5
1B
100
AcDbSymbolTableRecord
100
AcDbBlockTableRecord
2
*PAPER_SPACE
0
ENDTAB
0
ENDSEC
0
SECTION
2
BLOCKS
0
BLOCK
5
20
100
AcDbEntity
100
AcDbBlockBegin
2
*MODEL_SPACE
0
ENDBLK
5
21
100
AcDbEntity
100
AcDbBlockEnd
0
BLOCK
5
1C
100
AcDbEntity
100
AcDbBlockBegin
2
*PAPER_SPACE
0
ENDBLK
5
1D
100
AcDbEntity
100
AcDbBlockEnd
0
ENDSEC
0
SECTION
2
ENTITIES
0
LINE
5
100
100
AcDbEntity
8
0
100
AcDbLine
10
30.875853572788969
20
-26.135154843234496
30
0
11
135.01585357278898
21
-26.135154843234496
31
0
0
LINE
5
101
100
AcDbEntity
8
0
100
AcDbLine
10
135.01585357278898
20
-26.135154843234496
30
0
11
135.01585357278898
21
76.734845156765516
31
0
0
LINE
5
102
100
AcDbEntity
8
0
100
AcDbLine
10
135.01585357278898
20
76.734845156765516
30
0
11
30.875853572788969
21
76.734845156765516
31
0
0
LINE
5
103
100
AcDbEntity
8
0
100
AcDbLine
10
30.875853572788969
20
76.734845156765516
30
0
11
30.875853572788969
21
-26.135154843234496
31
0
0
LINE
5
104
100
AcDbEntity
8
0
100
AcDbLine
10
30.875853572788969
20
76.734845156765516
30
0
11
34.685853572788972
21
76.734845156765516
31
0
0
LINE
5
105
100
AcDbEntity
8
0
100
AcDbLine
10
34.685853572788972
20
76.734845156765516
30
0
11
34.685853572788972
21
72.924845156765514
31
0
0
LINE
5
106
100
AcDbEntity
8
0
100
AcDbLine
10
34.685853572788972
20
72.924845156765514
30
0
11
30.875853572788969
21
72.924845156765514
31
0
0
LINE
5
107
100
AcDbEntity
8
0
100
AcDbLine
10
30.875853572788969
20
72.924845156765514
30
0
11
30.875853572788969
21
76.734845156765516
31
0
0
LINE
5
108
100
AcDbEntity
8
0
100
AcDbLine
10
34.685853572788972
20
72.924845156765514
30
0
11
34.685853572788972
21
-22.325154843234493
31
0
0
LINE
5
109
100
AcDbEntity
8
0
100
AcDbLine
10
34.685853572788972
20
-22.325154843234493
30
0
11
131.20585357278898
21
-22.325154843234493
31
0
0
LINE
5
110
100
AcDbEntity
8
0
100
AcDbLine
10
34.685853572788972
20
72.924845156765514
30
0
11
131.20585357278898
21
72.924845156765514
31
0
0
CIRCLE
5
111
100
AcDbEntity
8
0
100
AcDbCircle
10
34.685853572788972
20
72.924845156765514
30
0
40
1.625
0
CIRCLE
5
112
100
AcDbEntity
8
0
100
AcDbCircle
10
131.20585357278898
20
72.924845156765514
30
0
40
1.6250000000000064
0
CIRCLE
5
113
100
AcDbEntity
8
0
100
AcDbCircle
10
34.685853572788972
20
-22.325154843234493
30
0
40
1.625
0
CIRCLE
5
114
100
AcDbEntity
8
0
100
AcDbCircle
10
131.20585357278898
20
-22.325154843234493
30
0
40
1.6250000000000009
0
LINE
5
115
100
AcDbEntity
8
0
100
AcDbLine
10
135.01585357278898
20
-26.135154843234496
30
0
11
135.01585357278898
21
31.205345156765514
31
0
0
LINE
5
116
100
AcDbEntity
8
0
100
AcDbLine
10
135.01585357278898
20
-26.135154843234496
30
0
11
135.01585357278898
21
63.780845156765508
31
0
0
LINE
5
117
100
AcDbEntity
8
0
100
AcDbLine
10
135.01585357278898
20
31.205345156765514
30
0
11
136.56585357278897
21
31.205345156765514
31
0
0
LINE
5
118
100
AcDbEntity
8
0
100
AcDbLine
10
136.56585357278897
20
31.205345156765514
30
0
11
136.56585357278897
21
63.780845156765508
31
0
0
LINE
5
119
100
AcDbEntity
8
0
100
AcDbLine
10
136.56585357278897
20
63.780845156765508
30
0
11
135.01585357278898
21
63.780845156765508
31
0
0
LINE
5
120
100
AcDbEntity
8
0
100
AcDbLine
10
135.01585357278898
20
63.780845156765508
30
0
11
135.01585357278898
21
31.205345156765514
31
0
0
LINE
5
121
100
AcDbEntity
8
0
100
AcDbLine
10
30.875853572788969
20
-26.135154843234496
30
0
11
30.875853572788969
21
26.252345156765511
31
0
0
LINE
5
122
100
AcDbEntity
8
0
100
AcDbLine
10
30.875853572788969
20
-26.135154843234496
30
0
11
30.875853572788969
21
38.253845156765507
31
0
0
LINE
5
123
100
AcDbEntity
8
0
100
AcDbLine
10
30.875853572788969
20
26.252345156765511
30
0
11
27.19585357278897
21
26.252345156765511
31
0
0
LINE
5
124
100
AcDbEntity
8
0
100
AcDbLine
10
27.19585357278897
20
26.252345156765511
30
0
11
27.19585357278897
21
38.253845156765507
31
0
0
LINE
5
125
100
AcDbEntity
8
0
100
AcDbLine
10
27.19585357278897
20
38.253845156765507
30
0
11
30.875853572788969
21
38.253845156765507
31
0
0
LINE
5
126
100
AcDbEntity
8
0
100
AcDbLine
10
30.875853572788969
20
38.253845156765507
30
0
11
30.875853572788969
21
26.252345156765511
31
0
0
LWPOLYLINE
5
127
100
AcDbEntity
8
0
100
AcDbPolyline
90
45
70
1
43
0.0
10
70.130374138666255
20
64.233930570668988
10
71.541086378315541
20
64.233930570668974
42
-0.0015931475286308681
10
71.56470980039758
20
64.233930570668988
10
77.114833648303858
20
64.233930570668988
42
-0.24416565838577489
10
79.041121144234097
20
60.524464876116781
10
80.153335332879848
20
51.867801988133351
10
82.182781284210535
20
52.128546643593253
42
-1.0617141521102653
10
82.5215709835377
20
47.149010426469722
10
80.875852268937635
20
47.135708216918665
42
0.082373938344243572
10
78.443686320846979
20
46.732276569604082
42
-0.098682955768427741
10
77.489901060194882
20
46.519882251033479
10
77.075852353874254
20
46.933930957354121
10
68.855913133929633
20
46.933930957354121
42
-0.28084733844015497
10
64.928356706855013
20
44.538937788004496
10
57.276748150782844
20
44.538937788004496
10
57.275852796438741
20
40.533934527672344
10
57.275852796438741
20
33.433937189299129
10
57.961889036150609
20
32.747149689423864
10
60.540341174927434
20
32.74714968942385
42
-0.24894570560522361
10
60.799740157658931
20
30.417367015228336
42
-1.4717430608364119
10
56.151192437026047
20
30.416974857927212
42
-0.094607749417179851
10
55.975388626286957
20
31.338031579608511
10
55.975854706767606
20
40.533934527672344
10
55.975854706767606
20
44.538937788004496
10
43.975854527953672
20
44.538937788004503
42
-0.38426361102437662
10
41.297262571167764
20
44.538937788004517
10
35.556078308436192
20
44.538937788004532
42
-0.58227810069542241
10
32.375853572788969
20
43.128995875561429
10
32.375853572788969
20
38.253845156765507
10
30.875853572788969
20
38.253845156765507
10
30.875853572788969
20
49.879933156765517
10
32.375853572788969
20
49.879933156765517
10
32.375853572788962
20
49.08467616772689
42
-0.9520386241299631
10
35.030175311458372
20
46.098711127392711
10
40.640484031087425
20
46.14954090420315
10
42.511312724474379
20
48.020369597590104
42
-0.43051748059661277
10
44.63650494661151
20
46.038937788004503
10
51.697180357446058
20
46.038937788004489
42
-2.0605586727220353
10
54.839532091115757
20
46.038937788004503
10
62.222736744809779
20
46.038937788004489
42
-3.0074597150243316
10
64.617970531110913
20
46.038937788004503
10
64.928356706855013
20
46.038937788004503
42
0.41422336710909086
10
67.846259027428658
20
48.956937788004502
10
67.845871323405149
20
60.538715515753189
42
-0.2891934661988399
10
69.96870137583312
20
63.878397163334917
42
-0.039116396831163039
0
LWPOLYLINE
5
128
100
AcDbEntity
8
0
100
AcDbPolyline
90
8
70
1
43
0.0
10
69.346259027428658
20
60.533934825695567
42
-0.15967586890615523
10
69.928312829382477
20
62.291135363767715
42
0.68911630816950753
10
74.590392902721362
20
61.981500994454862
42
-0.60963852626093273
10
77.254353586856325
20
62.102786844450051
42
-0.13107812244901601
10
77.675353954258952
20
60.524464876116781
10
78.809747146342374
20
51.69517682482266
10
77.43396116673506
20
51.518414866218116
10
69.346259027428658
20
51.518414866218116
0
CIRCLE
5
129
100
AcDbEntity
8
0
100
AcDbCircle
10
63.420353637960346
20
47.640722348187417
30
0
40
0.99999999999999645
0
CIRCLE
5
130
100
AcDbEntity
8
0
100
AcDbCircle
10
72.318339571140285
20
63.024464876116781
30
0
40
0.99999999999999645
0
CIRCLE
5
131
100
AcDbEntity
8
0
100
AcDbCircle
10
53.268356224280907
20
47.276437846782599
30
0
40
0.99999999999999645
0
ARC
5
132
100
AcDbEntity
8
0
100
AcDbCircle
10
58.475543971609042
20
29.496437002277915
30
0
40
1.0000000000000011
100
AcDbArc
50
-247.02878197974329
51
67.038449066994716
0
CIRCLE
5
133
100
AcDbEntity
8
0
100
AcDbCircle
10
77.43396116673506
20
49.018835539593894
30
0
40
1.0000000000000053
0
CIRCLE
5
134
100
AcDbEntity
8
0
100
AcDbCircle
10
33.629605291490336
20
47.526437858656962
30
0
40
0.99999999999999645
0
CIRCLE
5
135
100
AcDbEntity
8
0
100
AcDbCircle
10
82.501364348415336
20
49.648928763515372
30
0
40
0.99999999999998757
0
ARC
5
136
100
AcDbEntity
8
0
100
AcDbCircle
10
58.475388623075943
20
31.337904870876699
30
0
40
1.0000000000005971
100
AcDbArc
50
-67.028781979756843
51
247.03844906700976
0
CIRCLE
5
137
100
AcDbEntity
8
0
100
AcDbCircle
10
42.636558549560718
20
46.024295079116804
30
0
40
1.0000000000000009
0
CIRCLE
5
138
100
AcDbEntity
8
0
100
AcDbCircle
10
33.565854624922984
20
44.736446495617905
30
0
40
0.99999999999999201
0
ENDSEC
0
SECTION
2
OBJECTS
0
DICTIONARY
5
C
100
AcDbDictionary
3
ACAD_GROUP
350
D
3
ACAD_MLINESTYLE
350
17
0
DICTIONARY
5
D
100
AcDbDictionary
0
DICTIONARY
5
1A
330
C
100
AcDbDictionary
0
DICTIONARY
5
17
100
AcDbDictionary
0
ENDSEC
0
EOF
