0
SECTION
2
HEADER
9
$INSUNITS
70
4
9
$ACADVER
1
AC1014
9
$HANDSEED
5
FFFF
0
ENDSEC
0
SECTION
2
TABLES
0
TABLE
2
VPORT
5
8
100
AcDbSymbolTable
0
ENDTAB
0
TABLE
2
LTYPE
5
5
100
AcDbSymbolTable
0
LTYPE
5
14
100
AcDbSymbolTableRecord
100
AcDbLinetypeTableRecord
2
BYBLOCK
70
0
0
LTYPE
5
15
100
AcDbSymbolTableRecord
100
AcDbLinetypeTableRecord
2
BYLAYER
70
0
0
ENDTAB
0
TABLE
2
LAYER
5
2
100
AcDbSymbolTable
70
2
0
LAYER
5
50
100
AcDbSymbolTableRecord
100
AcDbLayerTableRecord
2
0
70
0
6
CONTINUOUS
0
ENDTAB
0
TABLE
2
STYLE
5
3
100
AcDbSymbolTable
70
1
0
STYLE
5
11
100
AcDbSymbolTableRecord
100
AcDbTextStyleTableRecord
2
STANDARD
70
0
0
ENDTAB
0
TABLE
2
VIEW
5
6
100
AcDbSymbolTable
70
0
0
ENDTAB
0
TABLE
2
UCS
5
7
100
AcDbSymbolTable
70
0
0
ENDTAB
0
TABLE
2
APPID
5
9
100
AcDbSymbolTable
70
2
0
APPID
5
12
100
AcDbSymbolTableRecord
100
AcDbRegAppTableRecord
2
ACAD
70
0
0
ENDTAB
0
TABLE
2
DIMSTYLE
5
A
100
AcDbSymbolTable
70
1
0
ENDTAB
0
TABLE
2
BLOCK_RECORD
5
1
100
AcDbSymbolTable
70
1
0
BLOCK_RECORD
5
1F
100
AcDbSymbolTableRecord
100
AcDbBlockTableRecord
2
*MODEL_SPACE
0
BLOCK_RECORD
5
1B
100
AcDbSymbolTableRecord
100
AcDbBlockTableRecord
2
*PAPER_SPACE
0
ENDTAB
0
ENDSEC
0
SECTION
2
BLOCKS
0
BLOCK
5
20
100
AcDbEntity
100
AcDbBlockBegin
2
*MODEL_SPACE
0
ENDBLK
5
21
100
AcDbEntity
100
AcDbBlockEnd
0
BLOCK
5
1C
100
AcDbEntity
100
AcDbBlockBegin
2
*PAPER_SPACE
0
ENDBLK
5
1D
100
AcDbEntity
100
AcDbBlockEnd
0
ENDSEC
0
SECTION
2
ENTITIES
0
LINE
5
100
100
AcDbEntity
8
0
100
AcDbLine
10
17.345310524888266
20
10.337550779008078
30
0
11
17.345310524888266
21
13.83755077900808
31
0
0
LINE
5
101
100
AcDbEntity
8
0
100
AcDbLine
10
17.345310524888266
20
13.83755077900808
30
0
11
13.845310524888266
21
13.83755077900808
31
0
0
LINE
5
102
100
AcDbEntity
8
0
100
AcDbLine
10
16.845310524888266
20
10.337550779008078
30
0
11
16.845310524888266
21
13.337550779008078
31
0
0
LINE
5
103
100
AcDbEntity
8
0
100
AcDbLine
10
16.845310524888266
20
13.337550779008078
30
0
11
13.845310524888266
21
13.337550779008078
31
0
0
ARC
5
104
100
AcDbEntity
8
0
100
AcDbCircle
10
16.845310524888266
20
13.337550779008078
30
0
40
3.0000000000000004
100
AcDbArc
50
180
51
270
0
LINE
5
105
100
AcDbEntity
8
0
100
AcDbLine
10
16.845310524888266
20
66.337550779008083
30
0
11
16.845310524888266
21
63.337550779008083
31
0
0
LINE
5
106
100
AcDbEntity
8
0
100
AcDbLine
10
16.845310524888266
20
63.337550779008083
30
0
11
13.845310524888266
21
63.337550779008083
31
0
0
ARC
5
107
100
AcDbEntity
8
0
100
AcDbCircle
10
16.845310524888266
20
63.337550779008083
30
0
40
2.9999999999999982
100
AcDbArc
50
90
51
180
0
LINE
5
108
100
AcDbEntity
8
0
100
AcDbLine
10
95.845310524888262
20
66.337550779008083
30
0
11
95.845310524888262
21
63.337550779008083
31
0
0
LINE
5
109
100
AcDbEntity
8
0
100
AcDbLine
10
95.845310524888262
20
63.337550779008083
30
0
11
98.845310524888262
21
63.337550779008083
31
0
0
LINE
5
110
100
AcDbEntity
8
0
100
AcDbLine
10
95.845310524888262
20
10.337550779008078
30
0
11
95.845310524888262
21
13.337550779008078
31
0
0
LINE
5
111
100
AcDbEntity
8
0
100
AcDbLine
10
95.845310524888262
20
13.337550779008078
30
0
11
98.845310524888262
21
13.337550779008078
31
0
0
ARC
5
112
100
AcDbEntity
8
0
100
AcDbCircle
10
95.845310524888262
20
13.337550779008078
30
0
40
3.0000000000000004
100
AcDbArc
50
-90
51
0
0
ARC
5
113
100
AcDbEntity
8
0
100
AcDbCircle
10
95.845310524888262
20
63.337550779008083
30
0
40
3.0000000000000071
100
AcDbArc
50
0
51
90
0
LINE
5
114
100
AcDbEntity
8
0
100
AcDbLine
10
17.345310524888266
20
66.337550779008083
30
0
11
17.345310524888266
21
62.837550779008083
31
0
0
LINE
5
115
100
AcDbEntity
8
0
100
AcDbLine
10
17.345310524888266
20
62.837550779008083
30
0
11
13.845310524888266
21
62.837550779008083
31
0
0
LINE
5
116
100
AcDbEntity
8
0
100
AcDbLine
10
17.345310524888266
20
62.837550779008083
30
0
11
75.345310524888276
21
62.837550779008083
31
0
0
LINE
5
117
100
AcDbEntity
8
0
100
AcDbLine
10
17.345310524888266
20
13.83755077900808
30
0
11
75.345310524888276
21
13.83755077900808
31
0
0
LINE
5
118
100
AcDbEntity
8
0
100
AcDbLine
10
75.345310524888276
20
13.83755077900808
30
0
11
75.345310524888276
21
10.337550779008078
31
0
0
LINE
5
119
100
AcDbEntity
8
0
100
AcDbLine
10
98.845310524888262
20
13.337550779008078
30
0
11
98.845310524888262
21
63.337550779008083
31
0
0
LINE
5
120
100
AcDbEntity
8
0
100
AcDbLine
10
95.845310524888262
20
66.337550779008083
30
0
11
16.845310524888266
21
66.337550779008083
31
0
0
LINE
5
121
100
AcDbEntity
8
0
100
AcDbLine
10
13.845310524888266
20
63.337550779008083
30
0
11
13.845310524888266
21
13.337550779008078
31
0
0
LINE
5
122
100
AcDbEntity
8
0
100
AcDbLine
10
16.845310524888266
20
10.337550779008078
30
0
11
95.845310524888262
21
10.337550779008078
31
0
0
CIRCLE
5
123
100
AcDbEntity
8
0
100
AcDbCircle
10
75.345310524888276
20
62.837550779008083
30
0
40
1.3749999999999978
0
CIRCLE
5
124
100
AcDbEntity
8
0
100
AcDbCircle
10
75.345310524888276
20
13.83755077900808
30
0
40
1.3750000000000018
0
CIRCLE
5
125
100
AcDbEntity
8
0
100
AcDbCircle
10
17.345310524888266
20
13.83755077900808
30
0
40
1.3750000000000013
0
CIRCLE
5
126
100
AcDbEntity
8
0
100
AcDbCircle
10
17.345310524888266
20
62.837550779008083
30
0
40
1.375
0
CIRCLE
5
127
100
AcDbEntity
8
0
100
AcDbCircle
10
17.345310524888266
20
62.837550779008083
30
0
40
3.1000000000000028
0
CIRCLE
5
128
100
AcDbEntity
8
0
100
AcDbCircle
10
17.345310524888266
20
13.83755077900808
30
0
40
3.1000000000000005
0
CIRCLE
5
129
100
AcDbEntity
8
0
100
AcDbCircle
10
75.345310524888276
20
13.83755077900808
30
0
40
3.0999999999999983
0
CIRCLE
5
130
100
AcDbEntity
8
0
100
AcDbCircle
10
75.345310524888276
20
62.837550779008083
30
0
40
3.1000000000000005
0
LINE
5
131
100
AcDbEntity
8
0
100
AcDbLine
10
13.845310524888266
20
13.337550779008078
30
0
11
24.445310524888267
21
13.337550779008078
31
0
0
LINE
5
132
100
AcDbEntity
8
0
100
AcDbLine
10
24.445310524888267
20
13.337550779008078
30
0
11
24.445310524888267
21
10.337550779008078
31
0
0
LINE
5
133
100
AcDbEntity
8
0
100
AcDbLine
10
20.945310524888264
20
11.33755077900808
30
0
11
27.945310524888267
21
11.33755077900808
31
0
0
LINE
5
134
100
AcDbEntity
8
0
100
AcDbLine
10
27.945310524888267
20
11.33755077900808
30
0
11
27.945310524888267
21
9.3375507790080761
31
0
0
LINE
5
135
100
AcDbEntity
8
0
100
AcDbLine
10
27.945310524888267
20
9.3375507790080761
30
0
11
20.945310524888264
21
9.3375507790080761
31
0
0
LINE
5
136
100
AcDbEntity
8
0
100
AcDbLine
10
20.945310524888264
20
9.3375507790080761
30
0
11
20.945310524888264
21
11.33755077900808
31
0
0
LINE
5
137
100
AcDbEntity
8
0
100
AcDbLine
10
20.945310524888264
20
11.33755077900808
30
0
11
27.945310524888267
21
9.3375507790080761
31
0
0
LINE
5
138
100
AcDbEntity
8
0
100
AcDbLine
10
27.945310524888267
20
11.33755077900808
30
0
11
20.945310524888264
21
9.3375507790080761
31
0
0
LINE
5
139
100
AcDbEntity
8
0
100
AcDbLine
10
13.845310524888266
20
13.337550779008078
30
0
11
45.845310524888269
21
13.337550779008078
31
0
0
LINE
5
140
100
AcDbEntity
8
0
100
AcDbLine
10
45.845310524888269
20
13.337550779008078
30
0
11
45.845310524888269
21
10.337550779008078
31
0
0
LINE
5
141
100
AcDbEntity
8
0
100
AcDbLine
10
38.595310524888269
20
8.3375507790080778
30
0
11
53.095310524888276
21
8.3375507790080778
31
0
0
LINE
5
142
100
AcDbEntity
8
0
100
AcDbLine
10
53.095310524888276
20
8.3375507790080778
30
0
11
53.095310524888276
21
12.33755077900808
31
0
0
LINE
5
143
100
AcDbEntity
8
0
100
AcDbLine
10
53.095310524888276
20
12.33755077900808
30
0
11
38.595310524888269
21
12.33755077900808
31
0
0
LINE
5
144
100
AcDbEntity
8
0
100
AcDbLine
10
38.595310524888269
20
12.33755077900808
30
0
11
38.595310524888269
21
8.3375507790080778
31
0
0
LINE
5
145
100
AcDbEntity
8
0
100
AcDbLine
10
38.595310524888269
20
8.3375507790080778
30
0
11
53.095310524888276
21
12.33755077900808
31
0
0
LINE
5
146
100
AcDbEntity
8
0
100
AcDbLine
10
53.095310524888276
20
8.3375507790080778
30
0
11
38.595310524888269
21
12.33755077900808
31
0
0
LINE
5
147
100
AcDbEntity
8
0
100
AcDbLine
10
13.845310524888266
20
13.337550779008078
30
0
11
67.345310524888276
21
13.337550779008078
31
0
0
LINE
5
148
100
AcDbEntity
8
0
100
AcDbLine
10
67.345310524888276
20
13.337550779008078
30
0
11
67.345310524888276
21
10.337550779008078
31
0
0
LINE
5
149
100
AcDbEntity
8
0
100
AcDbLine
10
65.345310524888276
20
12.337550779008078
30
0
11
69.345310524888276
21
12.337550779008078
31
0
0
LINE
5
150
100
AcDbEntity
8
0
100
AcDbLine
10
69.345310524888276
20
12.337550779008078
30
0
11
69.345310524888276
21
8.3375507790080778
31
0
0
LINE
5
151
100
AcDbEntity
8
0
100
AcDbLine
10
69.345310524888276
20
8.3375507790080778
30
0
11
65.345310524888276
21
8.3375507790080778
31
0
0
LINE
5
152
100
AcDbEntity
8
0
100
AcDbLine
10
65.345310524888276
20
8.3375507790080778
30
0
11
65.345310524888276
21
12.337550779008078
31
0
0
LINE
5
153
100
AcDbEntity
8
0
100
AcDbLine
10
65.345310524888276
20
12.337550779008078
30
0
11
69.345310524888276
21
8.3375507790080778
31
0
0
LINE
5
154
100
AcDbEntity
8
0
100
AcDbLine
10
69.345310524888276
20
12.337550779008078
30
0
11
65.345310524888276
21
8.3375507790080778
31
0
0
LINE
5
155
100
AcDbEntity
8
0
100
AcDbLine
10
16.845310524888266
20
10.337550779008078
30
0
11
16.845310524888266
21
38.337550779008083
31
0
0
LINE
5
156
100
AcDbEntity
8
0
100
AcDbLine
10
16.845310524888266
20
38.337550779008083
30
0
11
13.845310524888266
21
38.337550779008083
31
0
0
LINE
5
157
100
AcDbEntity
8
0
100
AcDbLine
10
16.845310524888266
20
43.837550779008083
30
0
11
10.845310524888266
21
43.837550779008083
31
0
0
LINE
5
158
100
AcDbEntity
8
0
100
AcDbLine
10
10.845310524888266
20
43.837550779008083
30
0
11
10.845310524888266
21
32.837550779008076
31
0
0
LINE
5
159
100
AcDbEntity
8
0
100
AcDbLine
10
10.845310524888266
20
32.837550779008076
30
0
11
16.845310524888266
21
32.837550779008076
31
0
0
LINE
5
160
100
AcDbEntity
8
0
100
AcDbLine
10
16.845310524888266
20
32.837550779008076
30
0
11
16.845310524888266
21
43.837550779008083
31
0
0
LINE
5
161
100
AcDbEntity
8
0
100
AcDbLine
10
16.845310524888266
20
43.837550779008083
30
0
11
10.845310524888266
21
32.837550779008076
31
0
0
LINE
5
162
100
AcDbEntity
8
0
100
AcDbLine
10
10.845310524888266
20
43.837550779008083
30
0
11
16.845310524888266
21
32.837550779008076
31
0
0
LINE
5
163
100
AcDbEntity
8
0
100
AcDbLine
10
13.845310524888266
20
13.337550779008078
30
0
11
13.845310524888266
21
10.337550779008078
31
0
0
LINE
5
164
100
AcDbEntity
8
0
100
AcDbLine
10
13.845310524888266
20
10.337550779008078
30
0
11
16.845310524888266
21
10.337550779008078
31
0
0
ENDSEC
0
SECTION
2
OBJECTS
0
DICTIONARY
5
C
100
AcDbDictionary
3
ACAD_GROUP
350
D
3
ACAD_MLINESTYLE
350
17
0
DICTIONARY
5
D
100
AcDbDictionary
0
DICTIONARY
5
1A
330
C
100
AcDbDictionary
0
DICTIONARY
5
17
100
AcDbDictionary
0
ENDSEC
0
EOF
